<svg width="96" height="96" viewBox="0 0 96 96" fill="none" xmlns="http://www.w3.org/2000/svg">
  <defs>
    <linearGradient id="deskbot-bg" x1="12" y1="10" x2="84" y2="86" gradientUnits="userSpaceOnUse">
      <stop stop-color="#1C6DF2" />
      <stop offset="0.55" stop-color="#0F4BB7" />
      <stop offset="1" stop-color="#0A234D" />
    </linearGradient>
    <linearGradient id="deskbot-glow" x1="24" y1="22" x2="68" y2="70" gradientUnits="userSpaceOnUse">
      <stop stop-color="#F6FBFF" stop-opacity="0.95" />
      <stop offset="1" stop-color="#B3D9FF" stop-opacity="0.18" />
    </linearGradient>
  </defs>
  <rect x="8" y="8" width="80" height="80" rx="28" fill="url(#deskbot-bg)" />
  <rect x="12" y="12" width="72" height="72" rx="24" stroke="rgba(255,255,255,0.24)" stroke-width="2" />
  <path d="M30 27H47C60.8071 27 70 35.6193 70 47.5C70 59.3807 60.8071 68 47 68H30V27Z" fill="url(#deskbot-glow)" />
  <path d="M31 27.5H46.6C58.3461 27.5 66.5 34.7296 66.5 47.5C66.5 60.2704 58.3461 67.5 46.6 67.5H31V27.5Z" stroke="rgba(255,255,255,0.85)" stroke-width="3" />
  <circle cx="65" cy="30" r="7" fill="#AEE8FF" />
  <circle cx="70" cy="44" r="4" fill="#E7F6FF" fill-opacity="0.92" />
  <circle cx="60.5" cy="57.5" r="5.5" fill="#D0EEFF" fill-opacity="0.9" />
</svg>
